<svg viewBox="0 0 200 200" width="140" height="140" xmlns="http://www.w3.org/2000/svg">
<path fill="none" stroke="white" stroke-width="3" d="M43.7,-75.3C57.2,-67.8,69.1,-57.3,76.6,-44.3C84,-31.2,87,-15.6,86.9,-0.1C86.8,15.4,83.5,30.9,76.3,44.4C69.1,58,58.1,69.8,44.7,78.4C31.4,87.1,15.7,92.7,-0.2,93C-16,93.4,-32.1,88.4,-44.9,79.4C-57.7,70.3,-67.2,57.3,-75.9,43.5C-84.5,29.6,-92.2,14.8,-93.4,-0.7C-94.6,-16.1,-89.3,-32.3,-79.9,-45C-70.6,-57.7,-57.3,-66.9,-43.3,-74C-29.3,-81.2,-14.6,-86.3,0.2,-86.7C15.1,-87,30.2,-82.7,43.7,-75.3Z" transform="translate(100 100)" /></svg>